<svg viewBox="0 0 100 100" xmlns="http://www.w3.org/2000/svg">
  <g fill="none" stroke="#a8c8e8" stroke-width="5" stroke-linecap="round" stroke-linejoin="round">
    <path d="M50 14 L58 42 L86 50 L58 58 L50 86 L42 58 L14 50 L42 42 Z"/>
    <path d="M50 30 L62 50 L50 70 L38 50 Z" stroke-width="3"/>
    <path d="M50 8 L47 20 M50 8 L53 20 M50 92 L47 80 M50 92 L53 80" stroke-width="3"/>
    <path d="M8 50 L20 47 M8 50 L20 53 M92 50 L80 47 M92 50 L80 53" stroke-width="3"/>
    <circle cx="50" cy="50" r="30" stroke-width="2.5" stroke-dasharray="4 6"/>
    <circle cx="50" cy="20" r="2" fill="#a8c8e8" stroke="none"/>
    <circle cx="80" cy="50" r="2" fill="#a8c8e8" stroke="none"/>
    <circle cx="50" cy="80" r="2" fill="#a8c8e8" stroke="none"/>
    <circle cx="20" cy="50" r="2" fill="#a8c8e8" stroke="none"/>
  </g>
</svg>
